<?xml version="1.0" encoding="utf-8"?>
<!-- Generator: Adobe Illustrator 24.0.2, SVG Export Plug-In . SVG Version: 6.00 Build 0)  -->
<svg version="1.1" xmlns="http://www.w3.org/2000/svg" xmlns:xlink="http://www.w3.org/1999/xlink" x="0px" y="0px"
	 viewBox="0 0 595.3 151.9" style="enable-background:new 0 0 595.3 151.9;" xml:space="preserve">
<style type="text/css">
	.st0{display:none;}
	.st1{display:inline;}
	.st2{fill:none;}
	.st3{fill:#FFFFFF;}
	.st4{fill:#003D58;}
	.st5{fill:#00628B;}
	.st6{fill:#0082B9;}
	.st7{fill:#009FE3;}
	.st8{font-family:'FuturaBT-Book';}
	.st9{font-size:88.3351px;}
	.st10{fill:#1D1D1B;}
</style>
<g id="Livello_1" class="st0">
	<g id="Livello_2_1_">
		<rect x="40.8" y="48.8" class="st1" width="623.6" height="123.1"/>
	</g>
	<g id="Livello_1_1_" class="st1">
		<line class="st2" x1="659.3" y1="63" x2="661.5" y2="63"/>
		<g>
			<path class="st3" d="M145.6,91.7c-3.2-2.8-6.5-4.8-9.9-6.2c-3.4-1.3-6.9-2-10.6-2c-8.4,0-15.2,2.7-20.4,8
				c-5.2,5.3-7.9,12.2-7.9,20.8c0,4.3,0.6,8.1,1.9,11.6c1.3,3.4,3.2,6.5,5.9,9.1c2.6,2.6,5.6,4.6,8.9,5.9c3.4,1.4,6.9,2,10.8,2
				c3.7,0,7.4-0.6,10.9-1.9s6.9-3.1,10.1-5.6v6.9c-3.2,1.9-6.6,3.4-10.1,4.5c-3.6,1-7.1,1.6-10.6,1.6c-4.7,0-9.2-0.8-13.5-2.5
				s-8-4-11-7.1c-3.2-3.1-5.6-6.8-7.2-10.9c-1.6-4.1-2.4-8.7-2.4-13.6c0-4.8,0.8-9.4,2.5-13.6c1.7-4.2,4.1-7.8,7.2-10.9
				c3-3,6.7-5.3,11-7c4.3-1.7,8.8-2.5,13.4-2.5c4.1,0,8,0.6,11.5,1.7s6.7,2.8,9.6,5.1L145.6,91.7z"/>
			<path class="st3" d="M309.5,144.7V79.8h32.1v5.5h-26.2v20.3h25.3v5.5h-25.3v33.5h-5.9V144.7z"/>
			<path class="st3" d="M473.7,144.7h-7.2l-22.8-30.9h-3.5v30.9h-5.9V79.8h11.9c7,0,12.3,1.5,15.8,4.4c3.5,2.9,5.2,7.4,5.2,13.3
				c0,5.1-1.5,9-4.5,11.9s-7.1,4.3-12.4,4.3L473.7,144.7z M440.2,84.9v24h5.9c5.5,0,9.3-0.9,11.5-2.6c2.2-1.8,3.3-4.7,3.3-9
				c0-4.5-1.1-7.6-3.4-9.5c-2.2-1.9-6-2.8-11.4-2.8h-5.9V84.9z"/>
			<path class="st3" d="M482.6,110h-7.2v-4.7h7.2V89.2h5.4v16.1h7.9v4.7H488v34.6h-5.4V110z"/>
			<path class="st3" d="M502.9,90c0-1.2,0.4-2.1,1.2-2.9c0.8-0.8,1.8-1.2,3-1.2s2.1,0.4,3,1.2c0.8,0.8,1.3,1.8,1.3,2.9
				c0,1.2-0.4,2.2-1.2,3c-0.8,0.8-1.8,1.2-3,1.2s-2.2-0.4-3-1.2C503.3,92.2,502.9,91.2,502.9,90z M504.3,144.7v-39.3h5.6v39.3H504.3
				z"/>
			<path class="st3" d="M530.2,144.7h-5.4v-39.3h5.4v6.2c1.3-2.5,3-4.4,5.1-5.7c2.1-1.3,4.6-1.9,7.4-1.9c2.9,0,5.3,0.7,7.3,2
				c2,1.3,3.6,3.2,4.7,5.8c1.6-2.6,3.5-4.5,5.8-5.8c2.3-1.3,4.9-1.9,7.9-1.9c4.2,0,7.4,1.3,9.8,3.8c2.4,2.5,3.6,6,3.6,10.4v26.6
				h-5.4v-24.6c0-3.8-0.8-6.7-2.4-8.7c-1.6-1.9-3.9-2.9-7.1-2.9c-3.7,0-6.5,1.2-8.3,3.7c-1.8,2.5-2.6,6.3-2.6,11.7v20.7h-5.4v-24.5
				c0-4-0.8-7-2.3-8.8c-1.5-1.9-3.8-2.8-7-2.8c-3.8,0-6.7,1.2-8.5,3.7c-1.8,2.5-2.7,6.4-2.7,11.6v20.7H530.2z"/>
			<path class="st3" d="M630.1,125.2h-31.2c0.1,5.1,1.4,9.1,3.8,12c2.4,2.9,5.6,4.3,9.6,4.3c2.9,0,5.4-0.8,7.6-2.3
				c2.2-1.6,4-3.9,5.4-7.1l5,2.7c-2,4-4.5,6.9-7.4,8.8c-2.9,1.9-6.5,2.8-10.7,2.8c-5.8,0-10.4-1.9-14-5.8c-3.6-3.9-5.3-8.9-5.3-15.2
				c0-6.4,1.8-11.6,5.3-15.6s8.1-5.9,13.8-5.9c5.4,0,9.8,1.8,13.1,5.5c3.3,3.6,4.9,8.5,4.9,14.6v1.2H630.1z M623.7,120.5
				c-0.3-3.6-1.5-6.4-3.6-8.4s-5-3-8.6-3c-3.3,0-6.1,1-8.3,3.1s-3.5,4.8-3.9,8.2L623.7,120.5L623.7,120.5z"/>
			<g>
				<circle class="st4" cx="199.1" cy="79.8" r="7.2"/>
				<circle class="st5" cx="215.7" cy="90.5" r="7.2"/>
				<circle class="st6" cx="222.1" cy="109.2" r="7.2"/>
				<circle class="st7" cx="215.6" cy="127.9" r="7.2"/>
				<path class="st3" d="M208.2,101.2l-7.6,0.9l-11.1,5.7c-0.5-0.5-1.3-0.6-2-0.4c-0.7,0.3-1.2,0.9-1.2,1.7l-12,3.6l-6.1,4.6
					l7.5-1.2l11.2-5.5c0.4,0.4,0.9,0.5,1.4,0.5l5.8,16.1l1.6,0.3l0.9-1.3l-7-15.6c0.4-0.3,0.6-0.8,0.7-1.4l11.9-3.8L208.2,101.2z"/>
				<path class="st3" d="M188.4,145.9c-18.2,0-33-14.8-33-33c0-8,2.9-15.8,8.2-21.8s12.5-9.9,20.4-10.9c1.8-0.2,3.4,1,3.7,2.8
					c0.2,1.8-1,3.4-2.8,3.7c-13.1,1.8-23,13.1-23,26.3c0,14.6,11.9,26.5,26.5,26.5c4.6,0,9.2-1.2,13.2-3.5c1.6-0.9,3.5-0.4,4.4,1.2
					c0.9,1.6,0.4,3.5-1.2,4.4C199.8,144.4,194.1,145.9,188.4,145.9z"/>
			</g>
			<g>
				<circle class="st4" cx="394.6" cy="79.8" r="7.2"/>
				<circle class="st5" cx="411.2" cy="90.5" r="7.2"/>
				<circle class="st6" cx="417.6" cy="109.2" r="7.2"/>
				<circle class="st7" cx="411.1" cy="127.9" r="7.2"/>
				<path class="st3" d="M403.7,101.2l-7.6,0.9l-11.1,5.7c-0.5-0.5-1.3-0.6-2-0.4c-0.7,0.3-1.2,0.9-1.2,1.7l-12,3.6l-6.1,4.6
					l7.5-1.2l11.2-5.5c0.4,0.4,0.9,0.5,1.4,0.5l5.8,16.1l1.6,0.3l0.9-1.3l-7-15.6c0.4-0.3,0.6-0.8,0.7-1.4l11.9-3.8L403.7,101.2z"/>
				<path class="st3" d="M383.9,145.9c-18.2,0-33-14.8-33-33c0-8,2.9-15.8,8.2-21.8c5.3-6,12.5-9.9,20.4-10.9c1.8-0.2,3.4,1,3.7,2.8
					c0.2,1.8-1,3.4-2.8,3.7c-13.1,1.8-23,13.1-23,26.3c0,14.6,11.9,26.5,26.5,26.5c4.6,0,9.2-1.2,13.2-3.5c1.6-0.9,3.5-0.4,4.4,1.2
					c0.9,1.6,0.4,3.5-1.2,4.4C395.3,144.4,389.6,145.9,383.9,145.9z"/>
			</g>
		</g>
		<text transform="matrix(1 0 0 1 229.0845 145.5451)" class="st3 st8 st9">M</text>
	</g>
</g>
<g id="Livello_2">
	<path class="st10" d="M297.7,72.3C185.3,72.3,82.2,36.4,1.4,0H0v151.9h595.3V0h-1.4C513.1,36.4,410,72.3,297.7,72.3z"/>
</g>
</svg>
