<?xml version="1.0" encoding="utf-8"?>
<!-- Generator: Adobe Illustrator 24.0.2, SVG Export Plug-In . SVG Version: 6.00 Build 0)  -->
<svg version="1.1" id="Livello_1" xmlns="http://www.w3.org/2000/svg" xmlns:xlink="http://www.w3.org/1999/xlink" x="0px" y="0px"
	 viewBox="0 0 110.8 107.2" style="enable-background:new 0 0 110.8 107.2;" xml:space="preserve">
<style type="text/css">
	.st0{fill:#003D58;}
	.st1{fill:#00628B;}
	.st2{fill:#0082B9;}
	.st3{fill:#009FE3;}
	.st4{fill:#FFFFFF;}
</style>
<g>
	<circle class="st0" cx="64" cy="16.5" r="9.1"/>
	<circle class="st1" cx="84.9" cy="30.1" r="9.1"/>
	<circle class="st2" cx="93" cy="53.7" r="9.1"/>
	<circle class="st3" cx="84.8" cy="77.2" r="9.1"/>
	<path class="st4" d="M75.4,43.5l-9.6,1.2l-14,7.2c-0.7-0.6-1.7-0.8-2.5-0.5s-1.5,1.2-1.5,2.1L32.7,58l-7.8,5.8l9.5-1.5l14.1-7
		c0.5,0.4,1.1,0.7,1.8,0.7l7.3,20.3l2,0.4l1.1-1.7l-8.9-19.6c0.5-0.4,0.8-1.1,0.8-1.7l15-4.8L75.4,43.5z"/>
	<path class="st4" d="M50.4,99.9c-23,0-41.7-18.7-41.7-41.7c0-10.1,3.7-19.9,10.4-27.5c6.6-7.5,15.8-12.4,25.7-13.8
		c2.2-0.3,4.3,1.3,4.6,3.5s-1.3,4.3-3.5,4.6c-16.5,2.2-29,16.5-29,33.2c0,18.5,15,33.5,33.5,33.5c5.9,0,11.6-1.5,16.7-4.4
		c2-1.1,4.5-0.5,5.6,1.5s0.5,4.5-1.5,5.6C64.9,98,57.7,99.9,50.4,99.9z"/>
</g>
</svg>
